<?xml version="1.0" encoding="UTF-8" standalone="no"?>
<!-- Created with Inkscape (http://www.inkscape.org/) -->

<svg
   width="1000"
   height="1000"
   viewBox="0 0 264.58333 264.58333"
   version="1.1"
   id="svg1"
   inkscape:version="1.4 (86a8ad7, 2024-10-11)"
   sodipodi:docname="drawing.svg"
   inkscape:export-filename="drawing.png"
   inkscape:export-xdpi="96"
   inkscape:export-ydpi="96"
   xmlns:inkscape="http://www.inkscape.org/namespaces/inkscape"
   xmlns:sodipodi="http://sodipodi.sourceforge.net/DTD/sodipodi-0.dtd"
   xmlns="http://www.w3.org/2000/svg"
   xmlns:svg="http://www.w3.org/2000/svg">
  <sodipodi:namedview
     id="namedview1"
     pagecolor="#505050"
     bordercolor="#ffffff"
     borderopacity="1"
     inkscape:showpageshadow="false"
     inkscape:pageopacity="0"
     inkscape:pagecheckerboard="1"
     inkscape:deskcolor="#505050"
     inkscape:document-units="px"
     inkscape:zoom="0.65477694"
     inkscape:cx="396.31817"
     inkscape:cy="539.87852"
     inkscape:window-width="1920"
     inkscape:window-height="974"
     inkscape:window-x="-11"
     inkscape:window-y="-11"
     inkscape:window-maximized="1"
     inkscape:current-layer="layer1" />
  <defs
     id="defs1">
    <rect
       x="174.10509"
       y="152.72377"
       width="671.98457"
       height="681.148"
       id="rect5" />
  </defs>
  <g
     inkscape:label="Layer 1"
     inkscape:groupmode="layer"
     id="layer1">
    <rect
       style="fill:#ffffff;stroke-width:0.264583"
       id="rect3"
       width="264.58334"
       height="264.58334"
       x="0"
       y="0"
       ry="53.338772" />
    <rect
       style="fill:#000000;stroke-width:0.239966"
       id="rect4"
       width="211.66666"
       height="211.66666"
       x="26.458336"
       y="26.458336"
       ry="48.345371"
       rx="0" />
    <text
       xml:space="preserve"
       transform="scale(0.26458333)"
       id="text5"
       style="text-align:start;writing-mode:lr-tb;direction:ltr;white-space:pre;shape-inside:url(#rect5);display:inline;fill:#000000" />
    <text
       xml:space="preserve"
       style="font-style:normal;font-variant:normal;font-weight:bold;font-stretch:normal;font-size:50.8px;line-height:0;font-family:Arial;-inkscape-font-specification:'Arial Bold';text-align:start;writing-mode:lr-tb;direction:ltr;text-anchor:start;fill:#000000;stroke-width:0.264583"
       x="132.29167"
       y="132.29167"
       id="text6"><tspan
         sodipodi:role="line"
         id="tspan6"
         style="font-style:normal;font-variant:normal;font-weight:bold;font-stretch:normal;font-size:50.8px;font-family:Arial;-inkscape-font-specification:'Arial Bold';stroke-width:0.264583;line-height:0"
         x="132.29167"
         y="132.29167" /></text>
    <path
       id="text7"
       style="font-weight:bold;font-size:237.318px;line-height:0;font-family:Arial;-inkscape-font-specification:'Arial Bold';fill:#ffffff;stroke-width:1.07088"
       d="m 69.972206,59.502917 v 24.284628 h 30.043334 v -0.05525 h 17.25447 c 3.13989,0 4.97108,0.03892 7.56059,0.05525 h 4.70568 v 0.03458 c 6.47485,0.07629 11.50798,0.195147 13.4128,0.406922 5.00721,0.595815 8.76252,2.317105 11.26614,5.163778 2.57127,2.780472 3.85683,6.421405 3.85683,10.923115 0,4.70033 -1.48831,8.507 -4.46557,11.41987 -2.90961,2.84669 -6.93585,4.56797 -12.07839,5.16379 -1.86067,0.21672 -6.3315,0.33569 -11.99181,0.41052 v 0.0858 h -9.79338 v 24.22983 h 4.53073 c 13.66835,0 22.53228,0.69513 26.59218,2.08537 4.12758,1.39022 7.2742,3.6083 9.43948,6.65358 2.16528,3.04527 3.24765,6.75233 3.24765,11.12163 0,5.16375 -1.42102,9.30145 -4.26296,12.41292 -2.77427,3.04528 -6.39412,4.96493 -10.86001,5.75935 -2.90961,0.59582 -9.77789,0.89379 -20.60432,0.89379 H 100.01554 V 161.08928 141.62573 117.3959 H 69.972206 v 60.08839 27.59614 h 50.647204 c 19.14923,-0.1324 31.22751,-0.46344 36.23472,-0.99305 7.98448,-0.86063 14.68323,-3.1448 20.09642,-6.8521 5.48089,-3.77349 9.7776,-8.77162 12.8902,-14.99458 3.18026,-6.28917 4.77039,-12.74367 4.77039,-19.36384 0,-8.40762 -2.43566,-15.72299 -7.30755,-21.94594 -4.87189,-6.22297 -11.84155,-10.6256 -20.90868,-13.20746 6.42819,-2.84667 11.50315,-7.11662 15.22473,-12.80996 3.78925,-5.69336 5.68395,-11.9495 5.68395,-18.768277 0,-6.289161 -1.5224,-11.949362 -4.56733,-16.98069 -3.04493,-5.097531 -6.86797,-9.168674 -11.4692,-12.213952 -4.53356,-3.045279 -9.71034,-5.031486 -15.52955,-5.958311 -5.75153,-0.993026 -14.51408,-1.489353 -26.28781,-1.489353 z" />
  </g>
</svg>
